# xmcd CD database file
# Generated: Sat May 25 05:47:47 2002 by KSCD
# 
# Track frame offsets:
#       150
#       12337
#       20901
#       32811
#       37568
#       55656
#       75462
#       84900
#       92867
#       110631
#       121376
#       130007
#       136416
#       138842
#       152533
#       158832
#       172302
#       176720
#       182806
#       199309
#       204648
#       216061
#       229204
#       242727
#       246142
#       267909
#
# Disc length: 3705 seconds
#
# Revision: 1
# Processed by: cddbd v1.4PL0 Copyright (c) Steve Scherf et al.
# Submitted via: Kscd 1.3.3
#
DISCID=660e771a
DTITLE=Luther Wright and the Wrongs - Rebuild the Wall
DYEAR=1900
DGENRE=
TTITLE0=In the Flesh
TTITLE1=The Thin Ice
TTITLE2=Another Brick in the Wall
TTITLE3=The Happiest Days of Our Lives
TTITLE4=Another Brick in the Wall - Part 2
TTITLE5=Mother
TTITLE6=Goodbye Blue Sky
TTITLE7=Empty Spaces
TTITLE8=Young Lust
TTITLE9=One of My Turns
TTITLE10=Don't Leave Me Now
TTITLE11=Another Brick in the Wall - Part 3
TTITLE12=Goodbye Cruel World
TTITLE13=Hey You
TTITLE14=Is There Anybody Out There
TTITLE15=Nobody Home
TTITLE16=Vera
TTITLE17=Bring the Boys Back Home
TTITLE18=Comfortably Numb
TTITLE19=The Show Must Go On
TTITLE20=In the Flesh
TTITLE21=Run Like Hell
TTITLE22=Waiting for the Worms
TTITLE23=Stop
TTITLE24=The Trial
TTITLE25=Outside the Wall
EXTD=
EXTT0=
EXTT1=
EXTT2=
EXTT3=
EXTT4=
EXTT5=
EXTT6=
EXTT7=
EXTT8=
EXTT9=
EXTT10=
EXTT11=
EXTT12=
EXTT13=
EXTT14=
EXTT15=
EXTT16=
EXTT17=
EXTT18=
EXTT19=
EXTT20=
EXTT21=
EXTT22=
EXTT23=
EXTT24=
EXTT25=
PLAYORDER=
